# xmcd
#
# Track frame offsets:
#	150
#	38684
#	71913
#	101467
#	129124
#	155163
#	182183
#	214228
#	240142
#	273049
#	299885
#	323837
#
# Disc length: 4680 seconds
#
# Revision: 0
# Processed by: cddbd v1.5.2PL0 Copyright (c) Steve Scherf et al.
# Submitted via: EasyCDDAExtractor 2010.6.0.0
#
DISCID=ae12460c
DTITLE=Bananarama - Wow!
DYEAR=2013
DGENRE=Pop
TTITLE0=Love In The First Degree (Love In The House Mix)
TTITLE1=I Heard A Rumour (House Mix)
TTITLE2=I Can't Help It (The Hammond Version Excursion)
TTITLE3=Reason For Living (12" Master)
TTITLE4=Some Girls (12" Version)
TTITLE5=Strike It Rich (12" Version)
TTITLE6=I Heard A Rumour (Original 12" Mix)
TTITLE7=Nathan Jones (Original 12" Mix)
TTITLE8=I Want You Back (Original 12" Mix)
TTITLE9=Ecstasy (Chicago House Style)
TTITLE10=I Heard A Rumour (Dub Version)
TTITLE11=Mr Sleaze (Rare Groove 12" Mix)
EXTD=
EXTT0=
EXTT1=
EXTT2=
EXTT3=
EXTT4=
EXTT5=
EXTT6=
EXTT7=
EXTT8=
EXTT9=
EXTT10=
EXTT11=
PLAYORDER=
